<svg width="300" height="138" viewBox="0 0 300 138" fill="none" xmlns="http://www.w3.org/2000/svg">
<g clip-path="url(#clip0_803_33)">
<g opacity="0.5">
<path opacity="0.5" d="M55.6189 78.4913C61.6638 73.0211 65.0139 67.8385 65.669 62.9436C66.2016 58.9305 65.2695 56.7598 62.8728 56.4314C61.4987 56.2442 60.4336 56.814 59.6773 58.1409C58.921 59.4677 58.2779 62.0549 57.7479 65.9025L35.7664 62.968C36.9648 55.5333 39.1684 49.5829 42.3773 45.1166C45.5861 40.6504 49.3835 37.5693 53.7695 35.8735C58.2279 34.1683 63.0364 33.6363 67.7501 34.3268C76.3462 35.4882 82.3059 38.8229 85.6293 44.3311C88.9527 49.8393 90.1337 56.2062 89.1724 63.432C88.1525 71.0512 85.0434 77.9391 79.8453 84.0958C74.6078 90.2906 68.3052 95.4601 61.2471 99.3504L84.6826 102.513L81.7906 124.052L28.876 116.917L31.5722 96.8229C41.5584 90.072 49.5739 83.9614 55.6189 78.4913Z" fill="#27863A"/>
<path opacity="0.5" d="M92.8752 82.2891C94.6354 69.1346 98.558 59.0069 104.643 51.906C110.728 44.8051 118.959 41.956 129.337 43.3588C139.701 44.7644 146.891 49.7149 150.907 58.2106C154.922 66.7062 156.045 77.4905 154.274 90.5636C152.522 103.718 148.597 113.866 142.498 121.008C136.4 128.149 128.164 131.026 117.789 129.636C107.419 128.228 100.229 123.278 96.2185 114.785C92.2081 106.292 91.0937 95.4599 92.8752 82.2891ZM131.865 87.5477C132.624 81.8496 132.665 77.3847 131.989 74.153C131.313 70.9214 129.302 69.0777 125.957 68.6218C122.546 68.1632 120.088 69.4046 118.584 72.3459C117.079 75.2872 115.946 79.6042 115.184 85.2969C114.423 90.995 114.379 95.4884 115.052 98.777C115.726 102.066 117.769 103.941 121.18 104.402C124.525 104.855 126.951 103.591 128.458 100.609C129.965 97.6265 131.101 93.2729 131.865 87.5477Z" fill="#27863A"/>
</g>
<path d="M57.1807 74.1448C63.4626 68.2024 66.9059 62.8774 67.5103 58.1697C68.0057 54.3113 66.9897 52.3821 64.4626 52.3821C63.7765 52.3705 63.1005 52.5522 62.5093 52.9071C61.9175 53.264 61.4359 53.7829 61.1192 54.4049C60.3203 55.7616 59.6892 58.2891 59.2258 61.9874H35.9381C37.0752 54.8132 39.2948 48.9157 42.5969 44.2948C45.899 39.6739 49.8535 36.2822 54.4604 34.1196C59.0727 31.9543 64.0938 30.843 69.172 30.8636C78.2634 30.8636 84.6186 33.2513 88.2376 38.0269C91.8566 42.8025 93.216 48.662 92.3159 55.6056C91.3733 62.9317 88.2136 69.8386 82.8371 76.3263C77.3018 82.9363 70.7608 88.598 63.464 93.095H88.2576L85.6013 113.816H29.6189L32.0955 94.487C42.5343 86.8543 50.8961 80.0735 57.1807 74.1448Z" fill="#27863A"/>
<path d="M96.5861 72.9721C98.2078 60.3169 102.17 50.2462 108.474 42.76C114.777 35.2737 123.414 31.536 134.386 31.5469C145.362 31.5469 153.04 35.3104 157.418 42.8373C161.796 50.3642 163.172 60.4146 161.548 72.9884C159.921 85.6436 155.957 95.7334 149.656 103.258C143.356 110.782 134.715 114.543 123.732 114.54C112.756 114.54 105.08 110.779 100.704 103.258C96.3291 95.7361 94.9563 85.6409 96.5861 72.9721ZM137.845 72.9721C138.548 67.4938 138.512 63.2691 137.737 60.2979C136.962 57.3268 134.806 55.8412 131.27 55.8412C127.659 55.8412 125.087 57.3268 123.553 60.2979C122.019 63.2691 120.899 67.4938 120.193 72.9721C119.496 78.4505 119.529 82.6942 120.293 85.7033C121.057 88.7125 123.253 90.217 126.88 90.217C130.419 90.217 132.958 88.7125 134.498 85.7033C136.037 82.6942 137.152 78.4505 137.845 72.9721Z" fill="#27863A"/>
<path d="M57.1687 75.5687C63.4533 69.6264 66.8965 64.3014 67.4984 59.5937C67.9937 55.7353 66.9791 53.806 64.4546 53.806C63.7663 53.7955 63.0887 53.9803 62.4975 54.3397C61.9064 54.6991 61.425 55.2189 61.1072 55.8411C60.3083 57.1978 59.6772 59.7253 59.2138 63.4236H35.9301C37.0566 56.2522 39.2735 50.3492 42.5809 45.7147C45.8883 41.0803 49.8428 37.6885 54.4445 35.5395C59.0567 33.3743 64.0779 32.263 69.1561 32.2835C78.2474 32.2835 84.6026 34.6713 88.2216 39.4468C91.8406 44.2224 93.196 50.0846 92.288 57.0336C91.3479 64.3597 88.187 71.2667 82.8051 77.7544C77.2724 84.3688 70.7327 90.0346 63.436 94.5353H88.2336L85.5813 115.256H29.6029L32.0835 95.9272C42.5223 88.2972 50.8841 81.511 57.1687 75.5687Z" fill="#27863A"/>
<path d="M96.5741 74.4142C98.2012 61.7617 102.162 51.6909 108.458 44.202C114.753 36.7131 123.392 32.9699 134.374 32.9727C145.35 32.9727 153.028 36.7334 157.406 44.2549C161.784 51.7764 163.16 61.8295 161.536 74.4142C159.922 87.0803 155.964 97.1686 149.66 104.679C143.357 112.19 134.716 115.952 123.736 115.966C112.76 115.966 105.082 112.203 100.704 104.679C96.3264 97.1551 94.9497 87.0667 96.5741 74.4142ZM137.837 74.4142C138.54 68.9359 138.504 64.7111 137.729 61.74C136.954 58.7688 134.797 57.2873 131.258 57.2954C127.65 57.2954 125.077 58.7878 123.541 61.7725C122.004 64.7572 120.884 68.982 120.181 74.4467C119.484 79.9305 119.517 84.1742 120.281 87.1779C121.045 90.1817 123.236 91.6862 126.852 91.6917C130.391 91.6917 132.93 90.1871 134.47 87.1779C136.009 84.1688 137.127 79.9142 137.825 74.4142H137.837Z" fill="#27863A"/>
<path opacity="0.5" d="M92.5077 138C103.326 138.005 113.902 134.74 122.9 128.62C131.897 122.5 138.911 113.798 143.054 103.615C147.197 93.4329 148.283 82.2272 146.176 71.4155C144.068 60.6038 138.861 50.6719 131.213 42.8758C123.565 35.0797 113.82 29.7698 103.21 27.6175C92.6005 25.4653 81.6025 26.5674 71.6074 30.7846C61.6123 35.0018 53.0691 42.1445 47.0584 51.3094C41.0477 60.4742 37.8395 71.2495 37.8395 82.2724C37.8379 89.5891 39.2507 96.8344 41.9972 103.595C44.7437 110.355 48.77 116.498 53.8465 121.673C58.9229 126.847 64.9499 130.953 71.5834 133.754C78.2169 136.556 85.327 137.998 92.5077 138Z" fill="#237638"/>
<path opacity="0.5" d="M88.0738 135.297C98.4874 135.302 108.669 132.16 117.329 126.268C125.99 120.377 132.742 112 136.73 102.199C140.719 92.3972 141.765 81.6105 139.736 71.203C137.707 60.7956 132.695 51.2349 125.333 43.7303C117.971 36.2256 108.591 31.1142 98.3775 29.0423C88.1644 26.9705 77.5776 28.0314 67.9562 32.0908C58.3348 36.1503 50.1111 43.0259 44.3251 51.8481C38.5391 60.6702 35.4508 71.0426 35.4508 81.6534C35.4492 88.6964 36.8091 95.6707 39.4528 102.178C42.0965 108.686 45.9723 114.599 50.8588 119.58C55.7453 124.561 61.5468 128.513 67.9322 131.21C74.3176 133.907 81.1617 135.295 88.0738 135.297Z" fill="#27863A"/>
<path d="M217.111 75.7595C218.388 77.8845 218.866 80.4091 218.457 82.8658C217.906 86.9685 216.152 90.1296 213.196 92.3491C210.241 94.5687 206.277 95.6825 201.305 95.6906H177.246L183.534 48.8848H206.929C211.6 48.8848 215.135 49.9199 217.534 51.9902C219.934 54.0605 220.866 57.0792 220.331 61.0462C220.04 63.6155 218.98 66.0314 217.295 67.9653C215.678 69.8155 213.546 71.119 211.183 71.7016C213.876 72.361 215.851 73.7136 217.111 75.7595ZM195.481 67.1309H201.073C202.371 67.1309 203.366 66.8704 204.065 66.3413C204.431 66.0442 204.731 65.6727 204.948 65.2505C205.173 64.8326 205.31 64.3707 205.347 63.8952C205.504 62.7474 205.305 61.9049 204.748 61.3677C204.197 60.8142 203.274 60.5252 201.976 60.5252H196.384L195.481 67.1309ZM202.763 83.1385C203.458 82.6338 203.883 81.809 204.037 80.6639C204.341 78.4172 203.217 77.2939 200.666 77.2939H194.111L193.22 83.9078H199.771C201.071 83.9078 202.067 83.6595 202.759 83.1629L202.763 83.1385Z" fill="url(#paint0_linear_803_33)"/>
<path d="M240.722 60.5252L239.923 66.3413H254.188L252.706 77.3794H238.457L237.571 83.9892H253.78L252.206 95.6906H221.597L227.888 48.8848H258.498L256.936 60.5211L240.722 60.5252Z" fill="url(#paint1_linear_803_33)"/>
<path d="M300 48.8906L298.438 60.527H286.247L281.518 95.6924H267.138L271.867 60.527H259.804L261.37 48.8906H300Z" fill="url(#paint2_linear_803_33)"/>
<path d="M216.971 76.2087C218.242 78.336 218.72 80.8584 218.317 83.315C217.766 87.4123 216.011 90.5747 213.053 92.8024C210.094 95.0301 206.129 96.1426 201.157 96.1399H177.086L183.378 49.334H206.789C211.471 49.334 215.006 50.3705 217.395 52.4435C219.783 54.5165 220.715 57.5352 220.191 61.4994C219.899 64.0683 218.839 66.4837 217.155 68.4186C215.536 70.2653 213.405 71.5669 211.043 72.1508C213.73 72.8102 215.706 74.1628 216.971 76.2087ZM195.345 67.5842H200.917C202.217 67.5842 203.214 67.3196 203.909 66.7905C204.275 66.4941 204.577 66.1242 204.796 65.7038C205.018 65.2829 205.154 64.8204 205.195 64.3444C205.35 63.1994 205.151 62.3501 204.6 61.7966C204.049 61.2471 203.122 60.9541 201.824 60.9541H196.232L195.345 67.5842ZM202.623 83.5918C203.314 83.0871 203.741 82.2609 203.897 81.1131C204.201 78.8665 203.076 77.7431 200.522 77.7431H193.955L193.068 84.3529H199.615C200.909 84.3529 201.908 84.1209 202.603 83.6122L202.623 83.5918Z" fill="url(#paint3_linear_803_33)"/>
<path d="M240.566 60.9703L239.768 66.7905H254.064L252.578 77.8286H238.302L237.415 84.4587H253.624L252.066 96.1399H221.441L227.736 49.334H258.346L256.78 60.9663L240.566 60.9703Z" fill="url(#paint4_linear_803_33)"/>
<path d="M299.848 49.3379L298.282 60.9702H286.091L281.362 96.1397H266.982L271.703 60.9702H259.656L261.21 49.3379H299.848Z" fill="url(#paint5_linear_803_33)"/>
<path opacity="0.5" d="M126.748 100.218C124.487 99.8637 122.203 99.5218 120.022 98.9968C114.803 107.774 107.478 115.053 98.7355 120.149C89.9931 125.244 80.1216 127.988 70.0509 128.122C37.3363 128.537 10.4016 101.728 10.0022 68.3776C9.60271 35.0274 35.8783 7.5625 68.6129 7.16364C77.5224 7.05636 86.3409 8.99892 94.4113 12.8466C102.482 16.6943 109.596 22.3479 115.224 29.3863C117.845 28.9548 120.462 28.5207 123.077 28.0838C116.86 19.2864 108.657 12.1424 99.1602 7.25519C89.6634 2.36797 79.1517 -0.118967 68.513 0.00437385C31.9317 0.468363 2.53251 31.1771 2.98389 68.4671C3.43526 105.757 33.5695 135.717 70.1388 135.257C81.8563 135.102 93.3248 131.789 103.379 125.655C113.433 119.521 121.713 110.784 127.379 100.332C127.168 100.299 126.96 100.263 126.748 100.218Z" fill="#2DAB3F"/>
<path opacity="0.6" d="M4.48187 90.3251C6.23544 88.8192 7.97303 87.3051 9.81448 85.962C6.75739 76.181 6.19394 65.7682 8.17719 55.7041C10.1604 45.64 14.6251 36.2559 21.1508 28.4355C42.3573 3.05857 79.9053 -0.0265478 104.799 21.5937C129.692 43.2139 132.72 81.4686 111.509 106.866C105.727 113.779 98.4866 119.273 90.3295 122.938C82.1723 126.602 73.3084 128.343 64.3988 128.03C62.9927 130.331 61.5907 132.629 60.1926 134.925C70.7833 135.933 81.4567 134.329 91.3106 130.248C101.164 126.167 109.909 119.729 116.806 111.477C140.561 83.0844 137.214 40.3161 109.34 16.1398C81.4671 -8.03646 39.5293 -4.58503 15.8142 23.816C8.22541 32.9149 3.13407 43.8974 1.05681 55.649C-1.02044 67.4007 -0.0096661 79.503 3.98656 90.728C4.14634 90.5937 4.32209 90.4635 4.48187 90.3251Z" fill="#30AB43"/>
<g opacity="0.5">
<path opacity="0.5" d="M58.451 74.6906C64.3628 69.5867 67.6369 64.7542 68.2734 60.193C68.806 56.4539 67.9019 54.4325 65.5611 54.1286C64.9411 54.0282 64.3058 54.1285 63.7447 54.4155C63.1836 54.7024 62.7249 55.1615 62.4335 55.7281C61.6825 56.9627 61.0554 59.3763 60.5521 62.9688L39.0379 60.2011C40.2176 53.2657 42.3706 47.7168 45.4969 43.5545C48.6233 39.3922 52.3421 36.5187 56.6535 34.9341C61.02 33.3464 65.6969 32.8509 70.2906 33.4892C78.6976 34.5746 84.5281 37.6855 87.7823 42.8219C91.0364 47.9583 92.1908 53.8939 91.2455 60.6285C90.2442 67.743 87.2031 74.1696 82.1221 79.9084C76.9488 85.7296 70.7898 90.5549 63.9394 94.1537L86.8556 97.076L84.0275 117.162L32.2913 110.507L34.9196 91.7849C44.7114 85.4844 52.5552 79.7863 58.451 74.6906Z" fill="#004B68"/>
<path opacity="0.5" d="M94.8845 78.2234C96.6022 65.9561 100.438 56.5109 106.393 49.8875C112.347 43.2641 120.395 40.605 130.535 41.9102C140.673 43.218 147.698 47.8308 151.61 55.7484C155.522 63.6661 156.624 73.7273 154.917 85.9321C153.197 98.2074 149.364 107.674 143.417 114.333C137.471 120.992 129.421 123.67 119.267 122.367C109.129 121.062 102.104 116.449 98.1919 108.529C94.28 100.609 93.1776 90.5068 94.8845 78.2234ZM133.004 83.1074C133.752 77.8001 133.795 73.6377 133.132 70.6205C132.468 67.6032 130.5 65.8829 127.228 65.4596C123.896 65.0282 121.5 66.1854 120.038 68.9314C118.576 71.6773 117.473 75.704 116.73 81.0114C115.987 86.3242 115.945 90.5068 116.602 93.5594C117.26 96.6119 119.257 98.3539 122.594 98.7854C125.862 99.2087 128.234 98.0297 129.712 95.2485C131.19 92.4673 132.287 88.4257 133.004 83.1237V83.1074Z" fill="#004B68"/>
</g>
<path d="M59.9769 70.6208C66.123 65.0774 69.4903 60.1119 70.0789 55.7243C70.5635 52.1264 69.5689 50.3274 67.095 50.3274C66.4338 50.3073 65.7801 50.4735 65.2056 50.8077C64.6297 51.1415 64.1534 51.6281 63.8275 52.2159C63.0553 53.4722 62.4388 55.8288 61.9781 59.2856H39.2097C40.3121 52.5917 42.4825 47.0863 45.7206 42.7693C48.7246 38.6457 52.7212 35.3809 57.3246 33.2901C61.8583 31.2713 66.7569 30.2425 71.7046 30.2701C80.5963 30.2701 86.809 32.5005 90.3428 36.9613C93.8765 41.4221 95.208 46.8977 94.3372 53.3881C93.4212 60.2096 90.3334 66.6376 85.0741 72.6721C79.6199 78.8815 73.2283 84.1643 66.1403 88.3216H90.3907L87.7903 107.658H33.0262L35.4509 89.6321C45.6474 82.4959 53.8227 76.1588 59.9769 70.6208Z" fill="white"/>
<path d="M98.5114 69.5282C100.109 57.7385 103.984 48.3489 110.135 41.3592C116.287 34.3695 124.732 30.8774 135.472 30.8828C146.217 30.8828 153.724 34.3939 157.993 41.4162C162.262 48.4384 163.614 57.8118 162.051 69.5363C160.454 81.3287 156.575 90.736 150.415 97.7582C144.256 104.78 135.809 108.29 125.075 108.288C114.329 108.288 106.821 104.778 102.55 97.7582C98.2784 90.7387 96.9323 81.3287 98.5114 69.5282ZM138.855 69.5282C139.54 64.4243 139.504 60.4899 138.748 57.725C137.991 54.96 135.884 53.5762 132.424 53.5735C128.893 53.5735 126.377 54.9573 124.875 57.725C123.373 60.4926 122.278 64.427 121.591 69.5282C120.91 74.6429 120.943 78.6017 121.691 81.4047C122.44 84.2076 124.581 85.6118 128.114 85.6172C131.576 85.6172 134.055 84.213 135.552 81.4047C137.049 78.5963 138.152 74.6375 138.863 69.5282H138.855Z" fill="white"/>
<path d="M59.9649 71.9552C66.111 66.4117 69.4797 61.4462 70.0709 57.0587C70.5502 53.4608 69.5569 51.6618 67.091 51.6618C66.429 51.6455 65.7749 51.8114 65.1976 52.1421C64.6209 52.4747 64.1443 52.9617 63.8196 53.5503C63.05 54.8066 62.4321 57.1632 61.9661 60.62H39.1977C40.3002 53.9288 42.4692 48.4234 45.7047 44.1037C48.6996 39.9745 52.6896 36.7025 57.2886 34.6041C61.8239 32.5914 66.722 31.5669 71.6687 31.5963C80.5683 31.5963 86.781 33.8281 90.3068 38.2916C93.8326 42.7551 95.1641 48.2307 94.3013 54.7184C93.3772 61.5616 90.2869 68.0031 85.0301 74.0431C79.5714 80.252 73.1775 85.5359 66.0884 89.6966H90.3388L87.7424 109.017H33.0143L35.4389 90.995C45.6434 83.8398 53.8188 77.4932 59.9649 71.9552Z" fill="url(#paint6_linear_803_33)"/>
<path d="M98.4993 70.8758C100.097 59.0808 103.97 49.6897 110.119 42.7028C116.268 35.7158 124.715 32.225 135.46 32.2305C146.205 32.2305 153.711 35.7402 157.977 42.7598C162.243 49.7793 163.596 59.1527 162.035 70.8799C160.437 82.675 156.561 92.0823 150.407 99.1018C144.253 106.121 135.798 109.632 125.043 109.635C114.297 109.635 106.792 106.124 102.526 99.1018C98.2597 92.0796 96.9175 82.6709 98.4993 70.8758ZM138.843 70.8758C139.53 65.7638 139.496 61.8294 138.74 59.0726C137.983 56.3158 135.875 54.932 132.416 54.9211C128.885 54.9211 126.37 56.305 124.871 59.0726C123.372 61.8403 122.276 65.7747 121.583 70.8758C120.896 75.9851 120.93 79.9426 121.683 82.7483C122.437 85.5539 124.578 86.9581 128.106 86.9608C131.568 86.9608 134.047 85.5566 135.544 82.7483C137.041 79.9399 138.148 75.9824 138.867 70.8758H138.843Z" fill="url(#paint7_linear_803_33)"/>
</g>
<defs>
<linearGradient id="paint0_linear_803_33" x1="195.585" y1="111.934" x2="203.921" y2="32.0623" gradientUnits="userSpaceOnUse">
<stop stop-color="#DBDBDB"/>
<stop offset="1" stop-color="white"/>
</linearGradient>
<linearGradient id="paint1_linear_803_33" x1="235.641" y1="116.114" x2="243.978" y2="36.2422" gradientUnits="userSpaceOnUse">
<stop stop-color="#DBDBDB"/>
<stop offset="1" stop-color="white"/>
</linearGradient>
<linearGradient id="paint2_linear_803_33" x1="273.325" y1="120.052" x2="281.662" y2="40.1757" gradientUnits="userSpaceOnUse">
<stop stop-color="#DBDBDB"/>
<stop offset="1" stop-color="white"/>
</linearGradient>
<linearGradient id="paint3_linear_803_33" x1="195.481" y1="111.928" x2="203.817" y2="32.0516" gradientUnits="userSpaceOnUse">
<stop stop-color="#DBDBDB"/>
<stop offset="1" stop-color="white"/>
</linearGradient>
<linearGradient id="paint4_linear_803_33" x1="235.533" y1="116.108" x2="243.87" y2="36.2315" gradientUnits="userSpaceOnUse">
<stop stop-color="#DBDBDB"/>
<stop offset="1" stop-color="white"/>
</linearGradient>
<linearGradient id="paint5_linear_803_33" x1="273.221" y1="120.039" x2="281.554" y2="40.163" gradientUnits="userSpaceOnUse">
<stop stop-color="#DBDBDB"/>
<stop offset="1" stop-color="white"/>
</linearGradient>
<linearGradient id="paint6_linear_803_33" x1="52.5512" y1="114.508" x2="81.9408" y2="34.6551" gradientUnits="userSpaceOnUse">
<stop stop-color="#DBDBDB"/>
<stop offset="1" stop-color="white"/>
</linearGradient>
<linearGradient id="paint7_linear_803_33" x1="-4259.82" y1="12132.6" x2="2298.86" y2="-5223.94" gradientUnits="userSpaceOnUse">
<stop stop-color="#DBDBDB"/>
<stop offset="1" stop-color="white"/>
</linearGradient>
<clipPath id="clip0_803_33">
<rect width="300" height="138" fill="white"/>
</clipPath>
</defs>
</svg>
