<svg width="90" height="56" viewBox="0 0 90 56" fill="none" xmlns="http://www.w3.org/2000/svg">
<g clip-path="url(#clip0_806_1997)">
<path d="M27.72 0.189453C20.3522 0.213297 13.2949 3.15995 8.09769 8.38246C2.90048 13.605 -0.0118857 20.6764 3.64598e-05 28.0443C0.0119586 35.4122 2.94719 42.4742 8.16128 47.6798C13.3754 52.8855 20.4421 55.8093 27.81 55.8093C35.1779 55.8093 42.2446 52.8855 47.4587 47.6798C52.6728 42.4742 55.608 35.4122 55.62 28.0443C55.6319 20.6764 52.7195 13.605 47.5223 8.38246C42.3251 3.15995 35.2678 0.213297 27.9 0.189453L27.72 0.189453Z" fill="#EB001B"/>
<path d="M62.0999 0.189453C54.732 0.213297 47.6748 3.15995 42.4776 8.38246C37.2804 13.605 34.368 20.6764 34.3799 28.0443C34.3918 35.4122 37.3271 42.4742 42.5412 47.6798C47.7552 52.8855 54.822 55.8093 62.1899 55.8093C69.5578 55.8093 76.6245 52.8855 81.8386 47.6798C87.0527 42.4742 89.9879 35.4122 89.9998 28.0443C90.0118 20.6764 87.0994 13.605 81.9022 8.38246C76.705 3.15995 69.6477 0.213297 62.2799 0.189453L62.0999 0.189453Z" fill="#F79E1B"/>
<path d="M45.0002 6.12891C41.6874 8.73102 39.0091 12.0517 37.1674 15.8403C35.3256 19.6289 34.3687 23.7864 34.3687 27.9989C34.3687 32.2114 35.3256 36.3689 37.1674 40.1575C39.0091 43.9461 41.6874 47.2668 45.0002 49.8689C48.313 47.2668 50.9913 43.9461 52.833 40.1575C54.6748 36.3689 55.6317 32.2114 55.6317 27.9989C55.6317 23.7864 54.6748 19.6289 52.833 15.8403C50.9913 12.0517 48.313 8.73102 45.0002 6.12891Z" fill="#FF5F00"/>
</g>
<defs>
<clipPath id="clip0_806_1997">
<rect width="90" height="55.62" fill="white" transform="translate(0 0.189453)"/>
</clipPath>
</defs>
</svg>
