<svg width="90" height="16" viewBox="0 0 90 16" fill="none" xmlns="http://www.w3.org/2000/svg">
<g clip-path="url(#clip0_806_2004)">
<path d="M88.3531 1.4068C87.2063 0.621068 85.4705 0.224798 83.1952 0.224798H77.2366L75.0214 12.2509H67.2154L67.7171 9.52243H72.4193L72.9765 6.45793L68.277 6.46469L68.7801 3.7484H73.6236L74.268 0.2255H64.4319L62.329 11.633H58.7194L60.8365 0.2249H55.6948L53.5919 11.6324H50.0756L52.1948 0.2249H47.0558L44.8378 12.251H36.9757L37.4728 9.52253H42.1939L42.7517 6.47543L38.0351 6.4707L38.5355 3.74901H43.4333L44.0737 0.224609H13.4227L11.6781 9.75441L8.2038 0.224609H2.8692L-0.00195312 15.7772H5.09265L6.83049 5.98461L10.2019 15.7772H28.4605L30.6805 3.74751H33.536L31.3161 15.7772H79.3581L80.7511 8.18361L83.0042 15.7772H88.1015L85.7665 9.57231L86.3008 9.45736C87.4773 9.20513 88.3949 8.6635 89.0339 7.8514C89.6723 7.03186 89.9975 5.97967 89.9975 4.7158C89.9975 3.24439 89.4593 2.16181 88.3517 1.4059L88.3531 1.4068ZM24.0271 12.2509H16.2286L16.7324 9.52243H21.6239L22.1784 6.44923H17.334L17.8006 3.74917H25.5877L24.0256 12.2509L24.0271 12.2509ZM84.1531 7.0123C83.6406 7.37068 82.8974 7.54513 81.8811 7.54513H80.8736L81.6464 3.37153H82.3876C83.2315 3.37153 83.8468 3.50677 84.2714 3.78265C84.6028 3.99903 84.997 4.42708 84.997 5.23648C84.9958 6.21562 84.5372 6.7417 84.1517 7.01218L84.1531 7.0123Z" fill="#83BA3B"/>
</g>
<defs>
<clipPath id="clip0_806_2004">
<rect width="90" height="15.5526" fill="white" transform="translate(0 0.224609)"/>
</clipPath>
</defs>
</svg>
