<svg width="90" height="34" viewBox="0 0 90 34" fill="none" xmlns="http://www.w3.org/2000/svg">
<path d="M71.5722 4.67267L79.051 3.34169V32.0371H71.5722V4.67267ZM82.4894 4.67267V32.0213H89.9683V3.34169L82.4894 4.67267ZM60.9401 32.0213H68.419V11.0424H60.9401V32.0213ZM11.5193 14.0054C10.5686 13.942 8.38202 13.7994 8.38202 11.8346C8.38202 9.45788 11.5352 9.45788 12.7077 9.45788C14.7834 9.45788 17.4771 10.0758 19.3943 10.6463C19.3943 10.6463 20.4718 11.0265 21.375 11.4068L21.4542 11.4227V4.92619L21.3433 4.8945C19.0774 4.10225 16.4472 3.34169 11.551 3.34169C3.12145 3.34169 0.142578 8.25366 0.142578 12.4526C0.142578 14.8769 1.18835 20.5811 10.838 21.2466C11.6619 21.2942 13.8327 21.4209 13.8327 23.4649C13.8327 25.1445 12.0581 26.1427 9.06335 26.1427C5.78342 26.1427 2.61441 25.303 0.681311 24.5107V31.2132C3.56511 31.9737 6.8292 32.354 10.6479 32.354C18.8873 32.354 22.5792 27.7114 22.5792 23.1005C22.5792 17.8716 18.4595 14.4808 11.5193 14.0054ZM56.7253 10.7413C49.8169 10.9632 46.3151 14.0688 46.3151 20.2325V32.0371H53.8574V22.4033C53.8574 18.7114 54.3327 17.1269 58.7218 16.9843V10.8364C57.9612 10.6938 56.7253 10.7413 56.7253 10.7413ZM36.4436 11.0265C36.2852 11.4385 35.081 14.8294 32.1813 18.3311V3.34169L24.4648 4.86281V32.0213H32.1813V23.6234C34.4155 26.9825 35.5246 32.0213 35.5246 32.0213H44.7623C43.8433 28.2184 39.8503 21.2149 39.8503 21.2149C43.4313 16.6674 45.0158 11.8188 45.2693 11.0107H36.4436V11.0265ZM64.6637 9.03007C66.6919 9.03007 68.3556 7.38218 68.3556 5.35401C68.3556 3.32584 66.7077 1.66211 64.6637 1.66211C62.6355 1.66211 60.9876 3.31 60.9876 5.35401C60.9876 7.38218 62.6355 9.03007 64.6637 9.03007Z" fill="url(#paint0_linear_806_2002)"/>
<defs>
<linearGradient id="paint0_linear_806_2002" x1="0.158428" y1="16.9981" x2="89.9733" y2="16.9981" gradientUnits="userSpaceOnUse">
<stop stop-color="#872166"/>
<stop offset="1" stop-color="#4F2455"/>
</linearGradient>
</defs>
</svg>
