<svg width="90" height="30" viewBox="0 0 90 30" fill="none" xmlns="http://www.w3.org/2000/svg">
<g clip-path="url(#clip0_806_1990)">
<path d="M39.0001 29.1434H31.7095L36.2696 0.947266H43.5598L39.0001 29.1434Z" fill="#00579F"/>
<path d="M65.429 1.63597C63.9909 1.06546 61.7101 0.435547 58.8899 0.435547C51.6901 0.435547 46.6201 4.27482 46.589 9.76382C46.5292 13.8136 50.219 16.0629 52.9787 17.4133C55.7993 18.7931 56.7581 19.6937 56.7581 20.9236C56.7294 22.8126 54.4789 23.6833 52.3798 23.6833C49.4691 23.6833 47.9095 23.2344 45.5393 22.1835L44.5793 21.7329L43.5591 28.0624C45.269 28.8414 48.4194 29.5327 51.6901 29.563C59.34 29.563 64.3203 25.7831 64.3793 19.9337C64.4084 16.724 62.46 14.2645 58.2595 12.2548C55.7096 10.9646 54.148 10.0947 54.148 8.7747C54.1779 7.57468 55.4688 6.34555 58.3473 6.34555C60.7174 6.28535 62.4588 6.85507 63.7781 7.42518L64.4375 7.72458L65.429 1.63597Z" fill="#00579F"/>
<path d="M75.1192 19.1545C75.7196 17.5347 78.0299 11.2655 78.0299 11.2655C77.9996 11.3257 78.6291 9.61573 78.9891 8.56601L79.4986 10.9956C79.4986 10.9956 80.8793 17.7448 81.1791 19.1545C80.0396 19.1545 76.5592 19.1545 75.1192 19.1545ZM84.1185 0.947266H78.4792C76.7402 0.947266 75.419 1.45678 74.6687 3.28671L63.8394 29.143H71.4892C71.4892 29.143 72.7486 25.6629 73.0193 24.9134C73.8585 24.9134 81.3003 24.9134 82.3799 24.9134C82.5892 25.9033 83.2498 29.143 83.2498 29.143H90.0002L84.1185 0.947266Z" fill="#00579F"/>
<path d="M25.62 0.947266L18.4801 20.1743L17.6999 16.2749C16.3799 11.7754 12.24 6.88678 7.62012 4.45603L14.16 29.1135H21.8697L33.3293 0.947266H25.62Z" fill="#00579F"/>
<path d="M11.8499 0.947266H0.120002L0 1.51698C9.15007 3.85682 15.21 9.49692 17.6997 16.276L15.1498 3.31741C14.73 1.51658 13.4398 1.00667 11.8499 0.947266Z" fill="#FAA61A"/>
</g>
<defs>
<clipPath id="clip0_806_1990">
<rect width="90" height="29.1274" fill="white" transform="translate(0 0.435547)"/>
</clipPath>
</defs>
</svg>
