<svg
  xmlns="http://www.w3.org/2000/svg"
  viewBox="0 0 512 512"
  height="512"
  width="512"
>
  <path d="m0 0h512v512h-512z" fill="#0cb1c3" />
  <path
    d="m108.582031 246.75c3-2.5 5.585938-5.082031 8.167969-8.167969 5.582031-7.164062 10.75-16.914062 10.75-26.082031 0-.5 0-1.082031 0-1.082031-.5-5.585938-3.582031-12.75-9.25-15.835938-1.5-1-3.082031-1-5.082031-1-5.667969.5-11.25 3.585938-14.835938 5.585938-6.164062 4.082031-11.332031 9.75-15.914062 15.414062l-1 1.5v-2.082031c-.5-4.582031-1.585938-9.167969-4.585938-12.75-1.582031-1.582031-3.582031-2.582031-6.164062-2.582031-1 0-2.085938.5-3.085938 1-1.5 1.082031-2.082031 2.082031-2.082031 3.582031-.5 1.082031-.5 2.582031-.5 3.582031v.585938c0 1.5 1.082031 2.5 1.082031 3.582031 0 1.5.5 2.5 1 3.582031 0 .5 0 1.5.5 2 0 1.585938 0 3.585938-.5 5.167969-1.582031 7.167969-2.082031 14.332031-3.582031 21.5-1.582031 6.082031-2.082031 12.25-4.582031 18.417969-1.085938 3.082031-1.085938 6.164062-2.585938 8.664062-1 2.585938-2.082031 5.667969-2.082031 8.25-.5 3-1 5.585938-2 8.667969-1.082031 1-1.082031 2.582031-1.082031 4.082031 0 1.085938.582031 2.085938.582031 3.085938.5 1.582031 1 3.582031 2 5.164062.5 1 1 1.5 2.082031 2.5 1 .5 2 1.085938 3.585938 1.085938 2.5 0 4.582031-1.085938 6.082031-3.085938 1.582031-1.582031 2.082031-3.582031 2.082031-5.664062 0-4.585938 1-9.75 2.085938-14.335938.5-2.082031 1.5-4.582031 2-6.664062.5-2 .5-3.585938 1-5.085938.582031-1.082031 1.582031-1.582031 3.082031-2.082031 1.582031-.5 3.582031-1 5.167969-1.5 6.082031-2.582031 11.75-5.667969 16.914062-9.75 0 0 .5-.5.5-.5 3.585938-2.582031 6.085938-4.582031 9.167969-7.167969.5-1 .5-1.582031 1.082031-1.582031zm-16.414062-3c-2.085938 2-4.585938 3-6.667969 4.582031-2.582031 1.5-4.582031 3.085938-7.167969 4.585938l-2.082031 1 1.082031-2c1-2.585938 2-4.585938 3.085938-7.167969 3.582031-6.667969 7.664062-12.832031 11.75-18.917969 1-1.582031 4.582031-5.164062 8.164062-9.25 4.085938-3.582031 8.25-7.164062 11.835938-7.664062 1 0 2 .5 3 1.5.582031.5.582031 1 .582031 1.582031 0 2.5-2.082031 6.082031-2.582031 7.667969-2.085938 4.082031-4.085938 8.164062-7.167969 12.25-4.582031 4.082031-9.75 7.664062-13.832031 11.832031zm105.5 10.75c1.5 0 4.582031.5 7.664062 0 1.5 0 3.085938-.582031 4.585938-2.082031 1-1 1.5-2.585938 1.5-3.585938 0-2.082031-1.5-3.582031-3-4.582031-1.585938-1.082031-3.085938-2.082031-4.167969-2.582031-3.582031-1-7.167969-1.5-10.75-1.5-2.5.5-5.582031 1-8.167969 2.5-5.582031 3.082031-8.664062 8.25-11.75 12.332031-1.582031-1.582031-3.082031-2.082031-5.164062-2.082031-.5 0-1 0-1 0-2 .5-3.085938 1.582031-3.585938 3.082031-.5 1-1 2.582031-1 3.582031-.5 3.085938-2.082031 6.667969-3.582031 9.75 0 0-.5.5-.5.5-4.167969 6.667969-10.75 14.835938-18.5 16.917969-.5 0-.5 0-1 0-1.5.5-3.082031.5-4.582031 1-2.585938 0-5.667969 0-8.167969-.5-2.082031-.5-3.582031-1.082031-4.667969-2.082031 4.667969-1.5 8.25-4.085938 11.25-6.667969.585938-.5 1.085938-.5 1.585938-1 0 0 .5-.5.5-.5 9.25-7.167969 18.914062-16.917969 13.832031-28.167969 0 0 0-.5-.5-.5-.5-1.582031-1.582031-2.582031-2.582031-3.582031-2.085938-2.582031-5.085938-4.082031-9.25-4.582031-1 0-2 0-3 0-5.167969.5-9.75 2.5-13.335938 5.582031-1.582031 1-3.082031 2.082031-4.082031 3.082031-1.582031 1.5-2.582031 2.585938-3.582031 4.085938 0 0-.5.5-.5.5-4.167969 6.664062-7.167969 13.332031-6.167969 21v1c0 3.582031.5 6.664062 2 10.25.582031 1.082031.582031 2.082031 1.082031 3.082031 2.5 4.082031 7.167969 7.167969 12.25 9.25.5 0 .5 0 1 .5 9.75 3.582031 21.5 1.5 30.25-4.082031 0 0 .5 0 .5-.5l3.085938-1.585938c0 .5.5 1.085938.5 1.585938v4.082031c0 2 1.5 3.082031 3.082031 3.582031 1.5.5 3.082031 1 4.082031 1 3.585938-.5 5.667969-2.582031 6.667969-5.082031 1-2.582031 1.5-5.167969 2.082031-6.667969 1.5-5.164062 4.085938-10.25 7.167969-14.832031 2.5-4.167969 4.582031-9.25 7.167969-13.332031 2.5-4.585938 6.082031-7.667969 10.75-8.167969zm-79.917969 19.417969c0 .5 0 .5 0 0-.5-1-.5-2.085938 0-3.085938 1.582031-5.582031 1.582031-10.75 7.667969-14.832031 1.582031-1 3.082031-2.082031 4.664062-3.082031h.5c4.585938-2.585938 10.75-1 8.167969 4.082031v.5c-1 2.082031-3.582031 3.582031-4.582031 4.667969-5.167969 4.582031-9.75 9.664062-16.417969 11.75zm132.582031-42c0-2-.5-3.585938-1-5.585938-.5-2.082031-2.582031-3.082031-4.082031-4.164062-1.5-.5-3.582031-1-5.082031-1-.585938 0-1.585938 0-2.085938 0-5.082031.5-9.25 3.082031-13.332031 6.164062-7.167969 5.667969-10.25 13.835938-10.25 22.5 0 2.085938.5 4.085938.5 6.667969 1.082031 6.167969 3.082031 11.75 5.167969 17.417969 1.5 3.582031 3.582031 8.164062 3.582031 11.75v1.582031c-.5 1.5-1.582031 3.082031-3.082031 4.082031-2.085938 1-4.085938 1.5-6.667969 1.5-2 0-3.582031-.5-5.082031-1-2.085938-.5-3.085938-1-4.085938-2-.582031-.582031-.582031-1.082031-.582031-2.582031 0 0 0-.5 0-1.082031 0-.5 0-1 0-1.5 0 0 0 0 0-.5 0-1 .582031-2.085938.582031-3.085938.5-1 1-2.582031 1-4.082031 0-.5 0-.5 0-1 0-1.082031-.5-1.582031-1-2.582031-.582031-.5-1.582031-1-2.582031-1-2.082031 0-3.082031 1-4.582031 2-1.085938 1-2.085938 2.082031-3.085938 3.082031-2.082031 3.082031-3.082031 6.667969-3.082031 10.25 0 1 0 2.582031.5 3.582031 1 5.085938 4.582031 8.667969 8.667969 11.25 4.164062 2.585938 9.25 3.585938 13.832031 3.585938 3.082031 0 6.667969-.5 10.25-1.5 3.582031-1.085938 6.667969-3.085938 8.75-6.167969 1.5-2.582031 2.5-5.667969 2-8.667969 0-3.664062-1-7.25-2-10.832031-2.082031-6.582031-4.667969-13.25-6.167969-19.917969-.5-3.082031-1-5.164062-1-7.664062 0-2.085938.5-4.085938 1.5-6.667969.5-1.582031 1.585938-3.582031 3.085938-5.667969 1-1.5 2.582031-3.082031 4.082031-3.082031 0 .582031-.5 1.082031-.5 2.082031-.5 1-1 2.085938-1 2.585938-1.082031 2.5-3.082031 7.164062-3.082031 11.25 0 1.5.5 3.082031 1 4.582031 1 1.582031 3.082031 2.582031 5.164062 2.582031 1.5 0 3-.5 4.085938-1.582031 2.5-2 3.082031-5.082031 3.582031-7.167969 1-4.582031 2.5-9.664062 4.582031-14.332031 1-.5 1.5-2.5 1.5-4.082031zm208.917969 46.582031c-1-1-2.582031-2-4.082031-2.5-1.5-.582031-2.585938-1.082031-3.585938-1.082031-2.582031-1-5.082031-1.5-7.164062-2.5-2.085938-1.085938-3.585938-2.585938-5.085938-4.667969-2.082031-3.082031-4.664062-8.167969-4.164062-12.25v-.5c.582031-5.167969 4.164062-10.75 6.164062-16.417969 2.085938-5.582031 4.585938-10.75 6.667969-16.414062 0-.5.5-1.5 1-2.5 0-.5 0-.5.5-1.085938.582031-2.5 1.082031-4.082031 1.082031-5.082031 0-.5 0-.5 0-1 0-1.582031.5-3.582031 0-4.667969 0 0 0-.5-.5-.5 0-1.5-1.582031-3.082031-3.582031-3.582031h-.582031c-.5 0-1.5 0-1.5 0-2.585938 0-6.167969 6.667969-7.167969 8.25-1 1.5-2.082031 3.582031-2.582031 4.582031-5.585938 9.75-9.667969 20-11.75 31.25-1 5.085938-3.085938 8.667969-6.167969 13.25-2.582031 4.167969-5.082031 7.75-7.667969 10.75-14.832031 16.917969-18.914062-2.5-18.914062-2.5-.5-2.582031-1.085938-4.664062-1.585938-7.164062 0-1.085938 0-2.085938-.5-3.085938s-1-2.082031-2-3.082031c0-.5 0-1.5.5-2.582031 0-1 .5-2 .5-2.5v-.585938c0-2 0-4.082031-.5-5.582031 0-1.582031-.5-3.082031-1.582031-4.582031-1-1.585938-2.5-2.585938-4.582031-2.585938-.5 0-.5 0-1 0-4.667969.5-8.75 3.585938-11.25 6.667969-3.085938 3.082031-6.667969 6.082031-9.75 9.667969-4.085938 5.164062-6.167969 12.332031-6.667969 19 0 3.082031.5 6.664062 1 9.164062-.5 0-1 0-2 0-3.082031 0-5.667969-1-7.167969-3.082031-3.082031-3.582031-5.164062-6.582031-5.664062-10.75 0-2 0-5.082031 0-7.667969 0-3.082031.5-6.664062.5-10.25 0-3 0-6.082031-.5-9.164062-.5-2.085938-1-4.085938-2.585938-5.667969-1.5-1.5-3.582031-3.082031-5.582031-3.082031-.5 0-1.082031 0-1.582031 0-5.585938 1.082031-8.667969 5.664062-11.25 8.75-4.085938 4.582031-7.167969 9.164062-10.75 14.332031-2 3.082031-4.085938 6.167969-5.585938 9.167969-.582031-2-.582031-4.085938-1.082031-6.585938-1-3.582031-2-7.164062-3.082031-10.75-1.5-4.164062-3.585938-9.75-8.167969-12.832031-.5 0-.5-.5-1-2.082031-.5-1-1.082031-2.5-3.082031-3.585938-.5-.5-1.585938-.5-2.085938-.5-2 0-4.082031 1.085938-5.582031 2.585938-4.082031 5.082031-8.75 9.25-13.332031 13.332031-2.085938 2-3.585938 4.082031-5.085938 6.082031-2.082031 2.085938-4.664062 4.667969-6.164062 7.75-1 2-2.585938 3.585938-4.085938 6.585938-1.082031 2.582031-1.582031 5.664062-1.582031 8.25v2.5c0 5.664062 1.582031 11.832031 4.667969 16.414062 3 5.167969 8.164062 8.75 14.832031 8.75 4.082031 0 9.667969-.582031 12.75-5.164062 3.082031-4.585938 2.582031-11.25 3.082031-15.335938 0-1.082031 0-2.082031 0-2.582031 0-1 0-2.082031 0-3.082031s0-2.585938 0-3.585938c.5-2.582031 1-5.582031 1-8.664062v-.5c0-.585938 0-.585938 0-.585938 0-3.582031.585938-7.164062 2.085938-10.75 1.5 2.585938 3.082031 6.167969 3.582031 8.75 1 4.585938 2.082031 8.667969 3.082031 13.335938 0 .5.5 2 .5 4.082031.5 3.082031 1 6.667969 2.085938 9.667969.5 1.582031 1 3.082031 2.5 4.164062 1.082031 1 2.582031 2 4.164062 2 1 0 1.5 0 2.5-.5 2.085938-.5 3.585938-2.582031 4.667969-4.082031 1-1.582031 1.5-3.582031 2-4.582031 1.582031-4.167969 3.082031-7.75 5.167969-11.335938 2.5-4.582031 4.582031-9.164062 7.664062-13.25 1-1.582031 2.5-3.082031 4.085938-5.164062.5-.5 1-1 1-1.5 0 2.582031-.5 4.582031-.5 7.664062v1.5c.5 4.667969 1 9.75 2.082031 14.335938 2 8.25 7.667969 14.914062 14.832031 19 3.085938 1.5 6.667969 2.582031 10.75 2.582031 5.085938 0 10.75-1.582031 14.835938-3.582031 5.664062-3.085938 8.664062-8.75 11.25-13.835938 2.582031 5.585938 5.664062 11.75 12.332031 14.335938 0 0 5.082031 2 12.25 0 7.667969-2.085938 12.332031-8.75 16.417969-13.835938 1.5-2.582031 4.082031-5.164062 5.582031-7.664062 1.582031 3.582031 3.582031 6.582031 6.167969 9.164062 4.082031 3.585938 9.25 6.167969 14.832031 6.667969h1c2.082031 0 4.167969 0 6.167969-.5 2.082031-.5 4.582031-1.582031 5.664062-4.582031-.5 0-.5-1.085938-.5-1.585938 0-1.5-.582031-2.582031-1.582031-3.082031zm-191.5 5.667969c-1 3.582031-4.082031 5.082031-7.667969 3.082031-3.582031-2.082031-4.082031-5.667969-3.582031-9.25l2.082031-7.167969c.5-3.582031 4.085938-5.082031 5.585938-8.164062 2.082031-1.585938 4.082031-4.585938 6.164062-6.667969-1.5 9.75 0 19.417969-2.582031 28.167969zm106-24.085938c-.5 2.085938-1 4.085938-2 5.667969-2.082031 3.582031-3.082031 9.667969-7.167969 11.75-2.082031 1-2.082031-2.582031-2.082031-3.582031.5-2.585938 1.5-5.085938 2.582031-7.167969 2.5-4.582031 6.085938-7.167969 9.667969-10.75 0-.5-1 3.582031-1 4.082031zm0 0"
    fill="#fff"
  />
</svg>
