<svg width="150" height="28" viewBox="0 0 150 28" fill="none" xmlns="http://www.w3.org/2000/svg">
<path d="M27.5234 12.659C27.5067 12.1441 27.264 11.8784 26.7927 11.8609H24.2756C23.6799 11.8974 23.3721 12.2242 23.3578 12.839V17.3663C23.3721 18.0009 23.7124 18.3246 24.374 18.3428H26.6809C26.9205 18.3428 27.1196 18.254 27.2782 18.0723C27.444 17.9359 27.5234 17.7606 27.5234 17.5432V12.659ZM20.126 12.0164C20.1426 10.8836 20.3949 10.0229 20.8844 9.43425C21.1406 9.18754 21.4611 8.98129 21.8514 8.81073C22.2567 8.62907 22.6494 8.54102 23.0302 8.54102H27.6503C29.6882 8.55847 30.7243 9.67303 30.7568 11.8871V18.7014C30.7417 19.4876 30.4339 20.1698 29.839 20.7401C29.2495 21.3399 28.5459 21.6453 27.7264 21.6635H23.3578V26.5763H20.126V12.0164Z" fill="#008AC9"/>
<path d="M36.5905 17.6852C36.5905 17.8748 36.6778 18.0247 36.8484 18.1374C37.0007 18.2722 37.1926 18.3428 37.4354 18.3428H39.9176C40.4784 18.3428 40.7696 18.1255 40.7862 17.6852V16.7587C40.7862 16.2525 40.4903 15.9971 39.8938 15.9971H37.4354C37.1117 15.9971 36.888 16.051 36.7635 16.1526C36.6485 16.2724 36.5905 16.5096 36.5905 16.861V17.6852ZM40.7862 12.5788C40.8029 12.0822 40.5133 11.845 39.9168 11.8609H33.4079V8.54102H40.7363C42.871 8.57592 43.9546 9.60719 43.9911 11.6436V18.5888C43.9729 19.4669 43.7039 20.1912 43.1819 20.7671C42.6362 21.3637 41.9325 21.6635 41.0702 21.6635H36.6405C34.4844 21.6453 33.3912 20.6608 33.3579 18.7038V16.0241C33.3746 13.979 34.4193 12.9398 36.4874 12.9041H40.7862V12.5788Z" fill="#008AC9"/>
<path d="M53.0679 23.2557C53.3241 23.2398 53.5462 23.1478 53.7263 22.9828C53.8992 22.8289 53.9865 22.652 53.9865 22.4513V21.6635H49.8487C49.3093 21.6635 48.8777 21.5945 48.5557 21.4573C48.2153 21.3327 47.8766 21.1003 47.5355 20.7703C47.2126 20.4205 46.9802 20.0547 46.839 19.6724C46.6922 19.3225 46.6177 18.8775 46.6177 18.3428V8.54102H49.8487V17.2909C49.8487 17.9922 50.1351 18.3428 50.715 18.3428H52.9965C53.2678 18.3428 53.5034 18.254 53.7009 18.0723C53.8913 17.9184 53.9865 17.736 53.9865 17.5218V8.54102H57.1914V23.001C57.1731 24.0712 56.8986 24.9279 56.3695 25.5776C55.8325 26.2273 55.0979 26.5597 54.161 26.5763H46.6177V23.2557H53.0679Z" fill="#008AC9"/>
<path d="M59.7295 18.3428H65.4879C66.0147 18.3246 66.2884 18.1136 66.305 17.709V17.4107C66.305 17.3243 66.2789 17.2283 66.2281 17.1251C66.0996 16.8745 65.9417 16.7499 65.7537 16.7499H62.8987C62.0514 16.7333 61.3288 16.4413 60.7211 15.8781C60.1063 15.3577 59.7914 14.7175 59.7731 13.9663V11.4904C59.8064 9.5588 60.856 8.57592 62.9233 8.54102H69.6019V11.8609H63.9434C63.2794 11.8609 62.9447 12.0648 62.9447 12.4709V12.7922C62.9447 13.2135 63.2866 13.4245 63.968 13.4245H66.8143C67.5727 13.4419 68.2192 13.7323 68.7579 14.2987C69.3021 14.869 69.5845 15.5473 69.6019 16.335V18.7569C69.5845 19.4376 69.2695 20.1166 68.6643 20.7941C68.3692 21.1265 68.0669 21.3549 67.7647 21.4842C67.4521 21.6032 67.0277 21.6635 66.4859 21.6635H59.7295V18.3428Z" fill="#008AC9"/>
<path d="M75.1318 17.6852C75.1318 17.8748 75.2191 18.0247 75.3936 18.1374C75.5443 18.2722 75.7371 18.3428 75.9767 18.3428H78.4636C79.0245 18.3428 79.314 18.1255 79.3307 17.6852V16.7587C79.3307 16.2525 79.0308 15.9971 78.4366 15.9971H75.9767C75.6538 15.9971 75.4309 16.051 75.3071 16.1526C75.1921 16.2724 75.1318 16.5096 75.1318 16.861V17.6852ZM79.3307 12.5788C79.3449 12.0822 79.0554 11.845 78.458 11.8609H71.9507V8.54102H79.2815C81.4138 8.57592 82.4982 9.60719 82.5316 11.6436V18.5888C82.5141 19.4669 82.2428 20.1912 81.724 20.7671C81.1822 21.3637 80.4778 21.6635 79.6147 21.6635H75.181C73.0264 21.6453 71.9325 20.6608 71.9023 18.7038V16.0241C71.9166 13.979 72.9606 12.9398 75.0303 12.9041H79.3307V12.5788Z" fill="#008AC9"/>
<path d="M85.1587 6.65725C85.1785 5.76083 85.5085 5.04132 86.1559 4.50189C86.7841 3.95373 87.6091 3.67211 88.6293 3.65625H90.6815V6.8635H89.4385C88.7554 6.87936 88.4072 7.2062 88.3921 7.83765V8.5405H90.6815V11.8636H88.3921V21.6638H85.1587V6.65725Z" fill="#008AC9"/>
<path d="M99.8728 12.517V12.44C99.8728 12.2695 99.8038 12.1243 99.665 12.0164C99.5142 11.9117 99.3302 11.8609 99.1089 11.8609H96.8591C96.5704 11.8609 96.3379 11.9418 96.1579 12.1076C95.9342 12.2607 95.8207 12.4622 95.8207 12.7105V14.0432L99.8728 12.517ZM95.8723 17.21V17.4171C95.8723 17.6828 95.9413 17.8938 96.0817 18.0469C96.1832 18.2429 96.3197 18.3428 96.5013 18.3428H103.14V21.6635H96.0817C95.4376 21.6635 94.9354 21.6032 94.5808 21.4827C94.1929 21.3549 93.8446 21.1463 93.5408 20.856C93.1854 20.5045 92.9435 20.1468 92.8221 19.7787C92.6888 19.3947 92.623 18.8854 92.623 18.2508L92.5952 11.6055C92.6309 9.59767 93.6796 8.57592 95.7406 8.54102H100.097C102.11 8.57592 103.129 9.63337 103.162 11.7189V14.3439L95.8723 17.21Z" fill="#008AC9"/>
<path d="M110.003 21.6633C109.513 21.6633 109.067 21.618 108.661 21.5355C108.237 21.4665 107.814 21.2698 107.382 20.9374C106.938 20.5511 106.631 20.1179 106.463 19.6396C106.286 19.1692 106.2 18.6361 106.2 18.0364V11.84C106.182 11.3347 106.232 10.8913 106.351 10.5065C106.459 10.1226 106.688 9.74655 107.033 9.37846C107.426 8.99213 107.828 8.73511 108.251 8.60897C108.659 8.50664 109.118 8.45508 109.633 8.45508H114.587V9.2317H109.748C108.894 9.2317 108.223 9.40702 107.732 9.75844C107.23 10.1416 106.973 10.8024 106.973 11.7337V17.934C106.973 18.3703 107.04 18.7948 107.172 19.2041C107.308 19.6063 107.534 19.9593 107.859 20.2679C108.211 20.5352 108.562 20.7018 108.903 20.77C109.26 20.8486 109.642 20.8858 110.047 20.8858H114.664V21.6633H110.003Z" fill="#008AC9"/>
<path d="M127.326 13.6241H120.832C120.055 13.6416 119.445 13.8819 119.007 14.3452C118.553 14.8156 118.329 15.4606 118.329 16.28V18.2577C118.329 18.6409 118.368 18.9915 118.451 19.3072C118.532 19.6396 118.736 19.9363 119.058 20.1909C119.619 20.6558 120.24 20.8858 120.919 20.8858H124.854C126.499 20.8684 127.326 20.0021 127.326 18.2823V13.6241ZM128.098 18.0887C128.098 18.5877 128.06 19.0256 127.995 19.4111C127.891 19.83 127.676 20.2338 127.35 20.6177C126.671 21.3325 125.831 21.6807 124.827 21.6633H120.966C119.963 21.6633 119.15 21.3634 118.52 20.7669C117.876 20.1774 117.55 19.358 117.55 18.3069V16.3094C117.583 14.0557 118.705 12.9014 120.917 12.8491H127.35V11.9749C127.35 11.2546 127.141 10.6239 126.726 10.0813C126.463 9.72909 126.151 9.49349 125.797 9.37212C125.44 9.27851 125.038 9.2317 124.591 9.2317H117.573V8.45508H124.226C124.834 8.45508 125.384 8.49792 125.882 8.582C126.138 8.63277 126.371 8.73273 126.586 8.8771C126.813 9.01434 127.026 9.21504 127.223 9.47842C127.819 10.2479 128.11 11.1356 128.098 12.1351V18.0887Z" fill="#008AC9"/>
<path d="M135.36 9.2317C133.559 9.26502 132.671 10.2479 132.704 12.1819V21.6633H131.931V12.1851C131.895 9.69736 133.079 8.45508 135.484 8.45508H136.344V9.2317H135.36Z" fill="#008AC9"/>
<path d="M148.441 9.23535H142.32C141.879 9.23535 141.484 9.28453 141.127 9.37814C140.755 9.46223 140.394 9.68831 140.057 10.0564C139.734 10.392 139.531 10.7243 139.446 11.0567C139.333 11.3923 139.281 11.7945 139.3 12.2633V18.3081C139.3 19.3132 139.591 19.997 140.181 20.3643C140.472 20.5349 140.792 20.6626 141.15 20.7483C141.507 20.8435 141.906 20.8903 142.344 20.8903H145.021C146.02 20.8903 146.838 20.6602 147.466 20.1962C148.098 19.7606 148.419 19.0094 148.441 17.9385V9.23535ZM149.213 17.9916C149.145 20.4936 147.821 21.7201 145.242 21.6685H142.373C141.767 21.6685 141.225 21.6153 140.746 21.5146C140.252 21.3869 139.78 21.0862 139.326 20.6174C138.984 20.1962 138.764 19.7702 138.676 19.3339C138.558 18.8983 138.506 18.4137 138.525 17.8845V12.2435C138.558 9.70259 139.837 8.43968 142.366 8.45872H148.441V4.17578H149.213V17.9916Z" fill="#008AC9"/>
<path d="M2.17425 8.04062C2.4281 7.92876 2.68195 7.8415 2.9358 7.78676C3.40225 5.55922 5.37515 3.88856 7.73993 3.88856C10.1063 3.88856 12.08 5.5616 12.5457 7.78835C13.2715 7.92638 13.872 8.2199 14.3401 8.657C14.3591 8.22942 14.3416 7.8177 14.2909 7.42979C13.9918 4.06467 11.1701 1.42383 7.72962 1.42383C4.18761 1.42383 1.30402 4.23126 1.15408 7.74075C1.13346 8.04379 1.12711 8.35952 1.13822 8.68952C1.4357 8.43884 1.77523 8.21355 2.17425 8.04062Z" fill="#E3001B"/>
<path d="M11.5848 8.54102H3.69163C3.31165 8.54102 2.91818 8.62907 2.51281 8.81073C2.12172 8.98129 1.80123 9.18754 1.54421 9.43425C1.05475 10.0229 0.804073 10.8836 0.786621 12.0164V18.1866C0.804073 19.3218 1.05475 20.1817 1.54421 20.7671C1.80123 21.0178 2.12172 21.2241 2.51281 21.3962C2.91818 21.5739 3.31165 21.6635 3.69163 21.6635H11.5848C13.6236 21.6453 14.6604 20.5268 14.6929 18.3159V11.8871C14.6604 9.67303 13.6236 8.55847 11.5848 8.54102Z" fill="#E3001B"/>
</svg>
